<?xml version="1.0" encoding="UTF-8"?>
<svg width="1440px" height="160px" viewBox="0 0 1440 160" version="1.1" xmlns="http://www.w3.org/2000/svg" xmlns:xlink="http://www.w3.org/1999/xlink">
    <title>画板</title>
    <g id="画板" stroke="none" stroke-width="1" fill="none" fill-rule="evenodd">
        <g id="prisma-3" transform="translate(0.000000, -505.000000)">
            <polygon id="路径" fill="#262626" points="0 546.546121 168.453879 715 0 883.453879 0 888 173 715 0 542"></polygon>
            <rect id="矩形" fill="#2B2B2B" fill-rule="nonzero" x="0" y="2" width="1440" height="1008"></rect>
            <path d="M844.451264,93.4811429 L935.93146,2 L931.395507,2 L843.792985,89.6034286 L843.792985,2 L840.573589,2 L840.573589,89.6034286 L753.012209,2 L748.465971,2 L982.504693,236.072 L719.676554,236.072 L719.676554,2 L716.467444,2 L716.467444,236.072 L453.62902,236.072 L687.698599,2 L683.15236,2 C604.98174,80.1714286 526.81112,158.342857 448.6405,236.514286 L445.894243,239.260571 L305.588265,379.609143 L181.430692,255.491429 L55,381.841143 L447.529655,774.313143 L445.9251,775.917714 L448.198219,775.917714 L448.198219,778.190857 L449.802774,776.586286 L451.407329,778.190857 L591.672164,918.508571 L500.191967,1010 L504.738206,1010 L592.340728,922.406857 L592.340728,1010 L595.560123,1010 L595.560123,922.396571 L683.15236,1010 L687.698599,1010 L453.62902,775.917714 L716.457159,775.917714 L716.457159,1010 L719.666268,1010 L719.666268,775.917714 L982.504693,775.917714 L748.424828,1010 L753.012209,1010 C883.495431,879.515429 1002.26335,760.561143 1130.49402,632.298286 L1254.61045,756.416 L1381,630.025143 L1254.70302,503.726857 L844.451264,93.4811429 Z M179.826138,502.122286 L61.191936,383.486857 L179.826138,383.486857 L179.826138,502.122286 Z M179.826138,380.277714 L61.191936,380.277714 L179.826138,261.642286 L179.826138,380.277714 Z M183.035247,261.642286 L301.669449,380.267429 L183.035247,380.267429 L183.035247,261.642286 Z M183.035247,383.486857 L301.669449,383.486857 L183.035247,502.122286 L183.035247,383.486857 Z M448.146791,770.435429 L185.308367,507.604571 L448.146791,507.604571 L448.146791,770.435429 Z M448.146791,504.395429 L185.308367,504.395429 L306.215687,383.486857 L309.424797,383.486857 L307.820242,381.882286 L309.424797,380.277714 L448.146791,241.554286 L448.146791,504.395429 Z M451.355901,241.564571 L714.184039,504.395429 L451.355901,504.395429 L451.355901,241.564571 Z M451.355901,770.445714 L451.355901,507.604571 L714.184039,507.604571 L581.396841,640.393143 L451.355901,770.445714 Z M716.457159,772.718857 L453.62902,772.718857 L716.457159,509.877714 L716.457159,772.718857 Z M716.457159,502.132571 L453.62902,239.281143 L716.457159,239.281143 L716.457159,502.132571 Z M987.997208,241.574857 L1250.83563,504.395429 L987.986922,504.395429 L987.997208,241.574857 Z M719.68684,239.301714 L982.504693,239.301714 L719.676554,502.122286 L719.68684,239.301714 Z M719.68684,772.729143 L719.68684,509.877714 L982.504693,772.708571 L719.68684,772.729143 Z M984.788098,770.456 L897.17529,682.842286 L721.939388,507.604571 L984.777812,507.604571 L984.788098,770.456 Z M984.788098,504.416 L721.939388,504.416 L984.777812,241.554286 L984.788098,504.416 Z M987.997208,770.456 L987.997208,507.604571 L1250.83563,507.604571 L987.997208,770.456 Z M1253.0059,750.275429 L1134.36141,631.629714 L1252.99561,631.629714 L1253.0059,750.275429 Z M1253.0059,628.430857 L1134.36141,628.430857 L1252.99561,509.785143 L1253.0059,628.430857 Z M1256.22529,509.795429 L1374.83892,628.4 L1256.20472,628.4 L1256.22529,509.795429 Z M1256.22529,631.64 L1374.85949,631.64 L1256.20472,750.254857 L1256.22529,631.64 Z" id="形状" fill="#262626"></path>
            <polygon id="路径" fill="#212121" points="534 690 719 505 534 505"></polygon>
            <polygon id="路径" fill="#242424" points="535 690 535 505 350 505"></polygon>
            <polygon id="路径" fill="#212121" points="528 684.008056 534 690 534 505 528 505"></polygon>
            <polygon id="路径" fill="#363636" points="719 690 904 690 719 505"></polygon>
            <polygon id="路径" fill="#333333" points="719 690 725 690 725 510.991944 719 505"></polygon>
            <polygon id="路径" fill="#292929" points="719 690 719 505 534 690"></polygon>
            <polygon id="路径" fill="#2B2B2B" points="713 690 719 690 719 505 713 510.991944"></polygon>
            <polygon id="路径" fill="#212121" points="905 690 1090 505 905 505"></polygon>
            <polygon id="路径" fill="#242424" points="904 690 904 505 719 505"></polygon>
            <polygon id="路径" fill="#212121" points="898 684.008056 904 690 904 505 898 505"></polygon>
            <polygon id="路径" fill="#363636" points="1091 589 1177 589 1091 503"></polygon>
            <polygon id="路径" fill="#333333" points="1092 589 1094 589 1094 505.788854 1092 503"></polygon>
            <polygon id="路径" fill="#292929" points="1092 589 1092 503 1006 589"></polygon>
            <polygon id="路径" fill="#212121" points="1091 676 1177 590 1091 590"></polygon>
            <polygon id="路径" fill="#242424" points="1092 676 1092 590 1006 590"></polygon>
            <polygon id="路径" fill="#212121" points="1088 673.221809 1090 676 1090 590 1088 590"></polygon>
            <polygon id="路径" fill="#2B2B2B" points="1088 589 1090 589 1090 503 1088 505.788854"></polygon>
            <path d="M1386.40343,289 L1385.01572,289 L1385.01572,389.755684 L1271.74749,389.755684 L1372.61882,289 L1370.66574,289 C1336.97001,322.650256 1303.2777,356.303934 1269.58883,389.961035 L1268.4067,391.141806 L1207.93324,451.535664 L1154.48059,398.14429 L1100,452.562422 L1269.14681,621.505051 L1268.44782,622.192978 L1269.47575,622.192978 L1269.47575,623.219736 L1270.17475,622.531808 L1270.87375,623.219736 L1331.3472,683.623861 L1291.92587,723 L1293.87895,723 L1331.63502,685.287208 L1331.63502,722.907592 L1333.02274,722.907592 L1333.02274,685.1948 L1370.77881,722.907592 L1372.73189,722.907592 L1271.86056,622.14164 L1385.12879,622.14164 L1385.12879,722.907592 L1386.51651,722.907592 L1386.51651,622.14164 L1440,622.14164 L1440,620.755518 L1386.40343,620.755518 L1386.40343,507.62741 L1440,561.152263 L1440,559.201424 L1387.39025,506.641723 L1440,506.641723 L1440,505.255601 L1387.37997,505.255601 L1440,452.706168 L1440,450.755329 L1386.40343,504.290449 L1386.40343,391.141806 L1440,391.141806 L1440,389.755684 L1386.40343,389.755684 L1386.40343,289 Z M1153.75076,504.280182 L1102.62124,453.209279 L1153.75076,453.209279 L1153.75076,504.280182 Z M1153.75076,451.833424 L1102.62124,451.833424 L1153.75076,400.762521 L1153.75076,451.833424 Z M1155.13847,400.762521 L1206.26799,451.833424 L1155.13847,451.833424 L1155.13847,400.762521 Z M1155.13847,453.209279 L1206.26799,453.209279 L1155.13847,504.280182 L1155.13847,453.209279 Z M1269.36268,619.780099 L1156.11501,506.641723 L1269.36268,506.641723 L1269.36268,619.780099 Z M1269.36268,505.255601 L1156.11501,505.255601 L1208.22107,453.209279 L1209.60878,453.209279 L1208.92006,452.521351 L1209.60878,451.833424 L1269.36268,392.117225 L1269.36268,505.255601 Z M1270.75039,392.117225 L1384.01862,505.255601 L1270.77095,505.255601 L1270.75039,392.117225 Z M1270.75039,619.780099 L1270.75039,506.641723 L1384.01862,506.641723 L1326.79345,563.801296 L1270.75039,619.780099 Z M1384.99516,620.806856 L1271.74749,620.806856 L1385.01572,507.66848 L1384.99516,620.806856 Z M1384.99516,504.33152 L1271.74749,391.141806 L1385.01572,391.141806 L1384.99516,504.33152 Z" id="形状" fill="#33CC99"></path>
            <polygon id="路径" fill="#33CC99" points="324 521 249 595.510294 324 670 324 668.044079 250.969048 595.510294 324 522.966215"></polygon>
            <path d="M1214.42088,611.48968 L1213.92814,611 L1161,663.589561 L1190.02014,663.589561 L1178.72826,674.811388 L1179.75479,675.831554 L1192.07321,663.589561 L1213.28143,663.589561 L1213.28143,697 L1214.66725,697 L1214.66725,663.599763 L1237.03544,663.599763 L1249.35386,675.841756 L1250.3804,674.82159 L1239.08851,663.599763 L1267,663.599763 L1214.42088,611.48968 Z M1213.28143,662.222539 L1193.40771,662.222539 L1213.28143,642.472123 L1213.28143,662.222539 Z M1214.66725,662.222539 L1214.66725,641.370344 L1235.64962,662.222539 L1214.66725,662.222539 Z M1237.6103,662.222539 L1214.61592,639.462633 L1214.61592,633.341637 L1213.28143,633.341637 L1213.28143,640.4828 L1191.44703,662.181732 L1164.38757,662.181732 L1213.97947,612.907711 L1263.56111,662.181732 L1237.6103,662.222539 Z" id="形状" fill="#33CC99"></path>
            <polygon id="路径" fill="#33CC99" points="1074 670 1149 595.5 1074 521 1074 522.955921 1147.03095 595.5 1074 668.033785"></polygon>
            <path d="M186.902526,611 L186.410028,611.48968 L134,663.599763 L161.897977,663.599763 L150.611557,674.82159 L151.637596,675.841756 L163.950053,663.599763 L186.307424,663.599763 L186.307424,697 L187.692576,697 L187.692576,663.599763 L208.941826,663.599763 L221.254283,675.841756 L222.280321,674.82159 L210.993902,663.599763 L240,663.599763 L186.902526,611 Z M186.215081,662.222539 L165.232601,662.222539 L186.20482,641.370344 L186.215081,662.222539 Z M187.600232,662.222539 L187.600232,642.472123 L207.464331,662.222539 L187.600232,662.222539 Z M209.424063,662.222539 L187.589972,640.4828 L187.589972,633.341637 L186.20482,633.341637 L186.20482,639.462633 L163.272868,662.263345 L137.334624,662.263345 L186.902526,612.938316 L236.470429,662.222539 L209.424063,662.222539 Z" id="形状" fill="#33CC99"></path>
            <path d="M13.9281265,723 L15.3188788,723 L15.3188788,622.222858 L128.83517,622.222858 L27.7326306,723 L29.7002875,723 L67.5390513,685.279177 L67.5390513,723 L68.9195017,723 L68.9195017,685.279177 L106.758265,723 L108.715621,723 L69.207954,683.615476 L129.803546,623.198486 L130.504073,622.500142 L131.194298,623.198486 L131.194298,622.17151 L132.224485,622.17151 L131.53426,621.473166 L301,452.545906 L246.400096,398.116186 L192.830379,451.51893 L132.224485,391.10194 L130.998563,389.951727 C97.2359048,356.307998 63.4698131,322.657422 29.7002875,289 L27.7429324,289 L128.83517,389.777142 L15.3085769,389.777142 L15.3085769,289 L13.9281265,289 L13.9281265,389.777142 L0,389.777142 L0,391.163559 L13.9281265,391.163559 L13.9281265,504.326029 L0,490.441316 L0,492.39257 L12.949449,505.301656 L0,505.301656 L0,506.688074 L12.9391471,506.688074 L0,519.59716 L0,521.548415 L13.9281265,507.663701 L13.9281265,620.836441 L0,620.836441 L0,622.222858 L13.9281265,622.222858 L13.9281265,723 Z M247.090321,400.786323 L298.331816,451.868102 L247.090321,451.868102 L247.090321,400.786323 Z M247.090321,453.24425 L298.331816,453.24425 L247.090321,504.326029 L247.090321,453.24425 Z M245.699569,400.786323 L245.699569,451.868102 L194.458074,451.868102 L245.699569,400.786323 Z M245.699569,453.24425 L245.699569,504.326029 L194.458074,453.24425 L245.699569,453.24425 Z M131.2046,392.139186 L191.120268,451.857832 L191.810494,452.556176 L191.120268,453.24425 L192.500719,453.24425 L244.720891,505.301656 L131.2046,505.301656 L131.2046,392.139186 Z M131.2046,506.688074 L244.720891,506.688074 L131.2046,619.850544 L131.2046,506.688074 Z M129.803546,619.850544 L73.6480594,563.85982 L16.2975563,506.688074 L129.803546,506.688074 L129.803546,619.850544 Z M129.803546,392.139186 L129.803546,505.301656 L16.2975563,505.301656 L129.803546,392.139186 Z M15.3085769,391.11221 L128.83517,391.11221 L15.3085769,504.326029 L15.3085769,391.11221 Z M15.3085769,620.774823 L15.3085769,507.673971 L128.83517,620.836441 L15.3085769,620.836441 L15.3085769,620.774823 Z" id="形状" fill="#33CC99"></path>
        </g>
    </g>
</svg>