<?xml version="1.0" encoding="UTF-8"?>
<svg width="220px" height="34px" viewBox="0 0 220 34" version="1.1" xmlns="http://www.w3.org/2000/svg" xmlns:xlink="http://www.w3.org/1999/xlink">
    <title>xdai.world</title>
     <g id="画板" stroke="none" stroke-width="1" fill="none" fill-rule="evenodd">
        <rect fill="#FFFFFF" x="0" y="0" width="220" height="34"></rect>
        <g id="编组" transform="translate(-4.000000, -7.000000)">
            <path d="M52.0471505,34.5926893 L56.681641,27.3237598 L61.2526453,34.5926893 L66.2680527,34.5926893 L59.2528309,23.3446475 L66.1410804,12.5665796 L61.1891591,12.5665796 L56.5229256,19.8355091 L51.9519213,12.5665796 L47,12.5665796 L53.9834787,23.7832898 L47.0317431,34.5926893 L52.0471505,34.5926893 Z M79.2298125,34.5926893 C81.282532,34.5926893 83.0548543,34.1436031 84.5467793,33.2454308 C86.0387043,32.3472585 87.1814554,31.073107 87.9750325,29.4229765 C88.7686096,27.772846 89.1653982,25.8302872 89.1653982,23.5953003 C89.1653982,21.3603133 88.7633191,19.4125326 87.9591609,17.7519582 C87.1550028,16.0913838 85.9910897,14.8120104 84.4674216,13.9138381 C82.9437535,13.0156658 81.1555597,12.5665796 79.1028402,12.5665796 L79.1028402,12.5665796 L70.2465194,12.5665796 L70.2465194,34.5926893 L79.2298125,34.5926893 Z M79.2298125,30.5822454 L74.6905513,30.5822454 L74.6905513,16.5770235 L79.1028402,16.5770235 C80.9227771,16.5770235 82.2983107,17.1827676 83.2294412,18.3942559 C84.1605717,19.6057441 84.626137,21.3394256 84.626137,23.5953003 C84.626137,25.8720627 84.1764433,27.6057441 83.2770559,28.7963446 C82.3776685,29.9869452 81.0285873,30.5822454 79.2298125,30.5822454 L79.2298125,30.5822454 Z M95.9372564,34.5926893 L97.9053276,29.1096606 L106.095044,29.1096606 L107.872656,34.5926893 L112.53889,34.5926893 L104.920549,12.5665796 L99.8099128,12.5665796 L91.4297383,34.5926893 L95.9372564,34.5926893 Z M104.888806,25.3498695 L99.2702803,25.3498695 L102.25413,17.2036554 L104.888806,25.3498695 Z M121.056618,34.5926893 L121.056618,12.5665796 L116.580843,12.5665796 L116.580843,34.5926893 L121.056618,34.5926893 Z M131.129757,34.5926893 L131.129757,30.6449086 L126.622239,30.6449086 L126.622239,34.5926893 L131.129757,34.5926893 Z M143.043995,34.5926893 L145.615185,25.2245431 L148.218118,34.5926893 L153.106553,34.5926893 L157.455355,18.8328982 L153.265268,18.8328982 L150.598849,30.2062663 L147.488027,18.8328982 L143.837572,18.8328982 L140.758493,30.2062663 L138.028587,18.8328982 L133.743271,18.8328982 L138.06033,34.5926893 L143.043995,34.5926893 Z M167.782439,35 C169.327269,35 170.708094,34.6501305 171.924912,33.9503916 C173.14173,33.2506527 174.094023,32.2741514 174.781789,31.0208877 C175.469556,29.767624 175.81344,28.3368146 175.81344,26.7284595 C175.81344,25.0992167 175.469556,23.6527415 174.781789,22.3890339 C174.094023,21.1253264 173.14173,20.1488251 171.924912,19.45953 C170.708094,18.770235 169.327269,18.4255875 167.782439,18.4255875 C166.237609,18.4255875 164.862075,18.7754569 163.655838,19.4751958 C162.449601,20.1749347 161.502599,21.156658 160.814832,22.4203655 C160.127065,23.6840731 159.783182,25.1201044 159.783182,26.7284595 C159.783182,28.3577023 160.121775,29.7989556 160.79896,31.0522193 C161.476146,32.305483 162.423148,33.2767624 163.639967,33.9660574 C164.856785,34.6553525 166.237609,35 167.782439,35 Z M167.782439,31.2402089 C166.66085,31.2402089 165.772044,30.8328982 165.11602,30.0182768 C164.459996,29.2036554 164.131984,28.1070496 164.131984,26.7284595 C164.131984,25.3498695 164.465287,24.2480418 165.131892,23.4229765 C165.798496,22.5979112 166.682012,22.1853786 167.782439,22.1853786 C168.904028,22.1853786 169.798125,22.5979112 170.46473,23.4229765 C171.131335,24.2480418 171.464637,25.3498695 171.464637,26.7284595 C171.464637,28.1070496 171.131335,29.2036554 170.46473,30.0182768 C169.798125,30.8328982 168.904028,31.2402089 167.782439,31.2402089 Z M184.267681,34.5926893 L184.267681,26.4151436 C184.267681,25.6214099 184.468721,24.921671 184.8708,24.3159269 C185.272879,23.7101828 185.79664,23.2454308 186.442083,22.921671 C187.087526,22.5979112 187.759421,22.4360313 188.457769,22.4360313 C189.113792,22.4360313 189.642844,22.5195822 190.044923,22.6866841 L190.044923,22.6866841 L190.235381,18.4882507 C189.939113,18.4464752 189.611101,18.4255875 189.251346,18.4255875 C186.881195,18.4255875 185.093002,19.3028721 183.886764,21.0574413 L183.886764,21.0574413 L183.53759,18.8328982 L180.014108,18.8328982 L180.014108,34.5926893 L184.267681,34.5926893 Z M197.737331,34.5926893 L197.737331,11 L193.5155,11 L193.5155,34.5926893 L197.737331,34.5926893 Z M209.143679,34.9686684 C210.159458,34.9686684 211.10646,34.7597911 211.984685,34.3420366 C212.862911,33.924282 213.598292,33.3498695 214.19083,32.618799 L214.19083,32.618799 L214.508261,34.5926893 L218,34.5926893 L218,11 L213.77817,11 L213.77817,20.0234987 C212.529608,18.9582245 211.058845,18.4255875 209.365881,18.4255875 C207.926861,18.4255875 206.641266,18.7754569 205.509096,19.4751958 C204.376926,20.1749347 203.48812,21.151436 202.842677,22.4046997 C202.197234,23.6579634 201.874513,25.0992167 201.874513,26.7284595 C201.874513,28.3994778 202.207815,29.8616188 202.87442,31.1148825 C203.541025,32.3681462 204.429831,33.3237598 205.540839,33.9817232 C206.651847,34.6396867 207.852794,34.9686684 209.143679,34.9686684 Z M210.159458,31.2402089 C208.953221,31.2402089 207.995638,30.8328982 207.286709,30.0182768 C206.57778,29.2036554 206.223315,28.0966057 206.223315,26.6971279 C206.223315,25.3185379 206.57778,24.2219321 207.286709,23.4073107 C207.995638,22.5926893 208.963802,22.1853786 210.191201,22.1853786 C211.122332,22.1853786 211.910618,22.4255875 212.556061,22.9060052 C213.201504,23.386423 213.608873,24.0548303 213.77817,24.9112272 L213.77817,24.9112272 L213.77817,28.3890339 C213.545387,29.2872063 213.116855,29.9869452 212.492575,30.4882507 C211.868294,30.9895561 211.090588,31.2402089 210.159458,31.2402089 Z" id="XDAI.world" fill="#4AA8A7" fill-rule="nonzero"></path>
        </g>
    </g>
</svg>
